<svg width="53" height="48" viewBox="0 0 53 48" fill="none" xmlns="http://www.w3.org/2000/svg">
<rect x="20" width="33" height="33" fill="#5699E8" fill-opacity="0.36"/>
<g clip-path="url(#clip0_151_756)">
<g clip-path="url(#clip1_151_756)">
<path d="M37.7779 13.6567H34.7433V8.60622C34.7433 8.44607 34.6799 8.29243 34.567 8.17885C34.4541 8.06527 34.3008 8.00098 34.1407 8.00002H5.85931C5.77925 7.99931 5.69983 8.01446 5.62566 8.0446C5.55148 8.07474 5.48401 8.11928 5.42715 8.17564C5.37028 8.23201 5.32514 8.29908 5.29434 8.37298C5.26354 8.44688 5.24768 8.52616 5.24768 8.60622V13.6567H2.22212C1.63307 13.6576 1.06842 13.892 0.651901 14.3086C0.23538 14.7251 0.000957028 15.2897 0 15.8788L0 40.9338C0.000957028 41.5228 0.23538 42.0874 0.651901 42.504C1.06842 42.9205 1.63307 43.1549 2.22212 43.1559H12.124V46.7931H7.87876C7.79649 46.7886 7.71416 46.8009 7.63681 46.8293C7.55946 46.8576 7.48871 46.9015 7.42888 46.9582C7.36904 47.0148 7.32139 47.0831 7.28882 47.1587C7.25625 47.2344 7.23946 47.316 7.23946 47.3983C7.23946 47.4807 7.25625 47.5623 7.28882 47.638C7.32139 47.7136 7.36904 47.7819 7.42888 47.8385C7.48871 47.8952 7.55946 47.9391 7.63681 47.9674C7.71416 47.9958 7.79649 48.0081 7.87876 48.0036H32.1267C32.2815 47.9952 32.4272 47.9277 32.5338 47.8151C32.6404 47.7025 32.6998 47.5534 32.6998 47.3983C32.6998 47.2433 32.6404 47.0942 32.5338 46.9816C32.4272 46.869 32.2815 46.8015 32.1267 46.7931H27.8779V43.1559H37.7779C38.3669 43.1549 38.9316 42.9205 39.3481 42.504C39.7646 42.0874 39.999 41.5228 40 40.9338V15.8788C39.999 15.2897 39.7646 14.7251 39.3481 14.3086C38.9316 13.892 38.3669 13.6576 37.7779 13.6567ZM37.7779 14.8691C37.9105 14.8691 38.0418 14.8952 38.1643 14.9459C38.2868 14.9967 38.3981 15.071 38.4919 15.1648C38.5856 15.2586 38.66 15.3699 38.7107 15.4924C38.7615 15.6149 38.7876 15.7462 38.7876 15.8788V37.0921H34.7433V14.8763L37.7779 14.8691ZM6.4637 9.21242H33.5345V37.0921H6.4637V9.21242ZM1.2124 15.8788C1.21431 15.6122 1.32153 15.3573 1.51068 15.1695C1.69984 14.9817 1.95558 14.8763 2.22212 14.8763H5.24768V37.0921H1.2124V15.8788ZM26.6673 46.7894H13.3327V43.1523H26.6673V46.7894ZM38.7912 40.9301C38.7912 41.1979 38.6848 41.4548 38.4955 41.6441C38.3061 41.8335 38.0493 41.9399 37.7815 41.9399H2.22212C1.95495 41.9399 1.69867 41.834 1.50941 41.6454C1.32016 41.4568 1.21335 41.2009 1.2124 40.9338V38.3045H38.7876L38.7912 40.9301ZM30.0746 14.8763H9.92355C9.76277 14.8763 9.60859 14.8124 9.4949 14.6987C9.38122 14.5851 9.31735 14.4309 9.31735 14.2701C9.31735 14.1093 9.38122 13.9551 9.4949 13.8415C9.60859 13.7278 9.76277 13.6639 9.92355 13.6639H30.0746C30.2354 13.6639 30.3896 13.7278 30.5033 13.8415C30.617 13.9551 30.6808 14.1093 30.6808 14.2701C30.6808 14.4309 30.617 14.5851 30.5033 14.6987C30.3896 14.8124 30.2354 14.8763 30.0746 14.8763ZM24.0362 11.0003C24.1199 11.0859 24.1768 11.1941 24.1998 11.3117C24.2227 11.4293 24.2107 11.551 24.1653 11.6618C24.1199 11.7726 24.043 11.8677 23.9442 11.9354C23.8454 12.0031 23.7289 12.0403 23.6091 12.0425C22.4727 11.934 23.1459 10.3 24.0362 11.0003ZM26.841 10.8302C27.0018 10.8302 27.1559 10.894 27.2696 11.0077C27.3833 11.1214 27.4472 11.2756 27.4472 11.4364C27.4472 11.5971 27.3833 11.7513 27.2696 11.865C27.1559 11.9787 27.0018 12.0425 26.841 12.0425C26.6802 12.0425 26.526 11.9787 26.4123 11.865C26.2987 11.7513 26.2348 11.5971 26.2348 11.4364C26.2348 11.2756 26.2987 11.1214 26.4123 11.0077C26.526 10.894 26.6802 10.8302 26.841 10.8302ZM30.5017 11.0003C30.5847 11.0863 30.6409 11.1947 30.6633 11.3121C30.6857 11.4296 30.6734 11.551 30.6279 11.6616C30.5824 11.7721 30.5057 11.8671 30.4071 11.9347C30.3085 12.0024 30.1924 12.0399 30.0728 12.0425C28.9364 11.934 29.6096 10.3 30.5017 11.0003ZM22.9812 20.6904L18.1316 32.0036C18.1002 32.0773 18.0545 32.1441 17.9972 32.2001C17.9399 32.2561 17.8722 32.3002 17.7978 32.3301C17.7234 32.3599 17.6439 32.3748 17.5638 32.3739C17.4837 32.373 17.4046 32.3563 17.3309 32.3248C17.2573 32.2934 17.1905 32.2477 17.1345 32.1904C17.0785 32.1331 17.0343 32.0654 17.0045 31.991C16.9747 31.9166 16.9598 31.8371 16.9607 31.757C16.9616 31.6769 16.9782 31.5978 17.0097 31.5241L21.8575 20.2108C21.9208 20.063 22.0403 19.9464 22.1896 19.8867C22.339 19.827 22.5059 19.829 22.6537 19.8924C22.8015 19.9557 22.9181 20.0752 22.9778 20.2245C23.0376 20.3738 23.0355 20.5407 22.9722 20.6886L22.9812 20.6904ZM15.3232 22.9233L11.7838 26.1081L15.3232 29.2948C15.4432 29.4023 15.5156 29.553 15.5244 29.7139C15.5332 29.8747 15.4778 30.0325 15.3703 30.1525C15.2628 30.2725 15.112 30.3448 14.9512 30.3536C14.7903 30.3625 14.6325 30.307 14.5126 30.1995L10.4718 26.5623C10.4081 26.5055 10.3571 26.4358 10.3221 26.3578C10.2872 26.2799 10.2692 26.1954 10.2692 26.11C10.2692 26.0245 10.2872 25.9401 10.3221 25.8621C10.3571 25.7841 10.4081 25.7144 10.4718 25.6576L14.5126 22.0204C14.572 21.9672 14.6413 21.9261 14.7165 21.8997C14.7918 21.8733 14.8715 21.8619 14.9512 21.8663C15.0308 21.8706 15.1088 21.8906 15.1807 21.9252C15.2526 21.9597 15.317 22.008 15.3703 22.0674C15.4235 22.1268 15.4645 22.1961 15.491 22.2714C15.5174 22.3467 15.5288 22.4264 15.5244 22.506C15.52 22.5857 15.5 22.6637 15.4655 22.7356C15.431 22.8075 15.3826 22.8719 15.3232 22.9252V22.9233ZM29.5264 25.6576C29.5899 25.7146 29.6406 25.7843 29.6754 25.8623C29.7102 25.9402 29.7281 26.0246 29.7281 26.11C29.7281 26.1953 29.7102 26.2797 29.6754 26.3576C29.6406 26.4356 29.5899 26.5053 29.5264 26.5623L25.4856 30.1977C25.3657 30.3052 25.2079 30.3607 25.047 30.3518C24.8862 30.343 24.7354 30.2706 24.6279 30.1507C24.5204 30.0307 24.465 29.8729 24.4738 29.7121C24.4826 29.5512 24.555 29.4004 24.675 29.2929L28.2162 26.1063L24.675 22.9215C24.6156 22.8683 24.5672 22.8039 24.5327 22.732C24.4982 22.6601 24.4782 22.5821 24.4738 22.5024C24.4694 22.4228 24.4808 22.343 24.5072 22.2678C24.5337 22.1925 24.5747 22.1232 24.6279 22.0638C24.7354 21.9438 24.8862 21.8715 25.047 21.8626C25.1267 21.8583 25.2064 21.8696 25.2817 21.8961C25.3569 21.9225 25.4262 21.9635 25.4856 22.0168L29.5264 25.6576Z" fill="black"/>
</g>
</g>
<defs>
<clipPath id="clip0_151_756">
<rect width="40" height="40" fill="white" transform="translate(0 8)"/>
</clipPath>
<clipPath id="clip1_151_756">
<rect width="40" height="40" fill="white" transform="translate(0 8)"/>
</clipPath>
</defs>
</svg>
