<svg width="40" height="40" viewBox="0 0 40 40" fill="none" xmlns="http://www.w3.org/2000/svg">
<g clip-path="url(#clip0_153_1223)">
<path d="M31.875 16.875H3.125V36.875H31.875V16.875ZM30.625 35.625H4.375V18.125H30.625V35.625Z" fill="black"/>
<path d="M8.125 34.375C9.50375 34.375 10.625 33.2538 10.625 31.875C10.625 31.2337 10.3756 30.6544 9.97688 30.2113L13.5662 24.2294C13.8212 24.3169 14.0906 24.375 14.375 24.375C14.6681 24.375 14.9456 24.315 15.2069 24.2219L19.125 28.6994C18.8919 29.0794 18.75 29.5219 18.75 30C18.75 31.3788 19.8712 32.5 21.25 32.5C22.6288 32.5 23.75 31.3788 23.75 30C23.75 29.5044 23.6006 29.045 23.3512 28.6562L26.5844 24.3456C26.6812 24.3569 26.7756 24.375 26.875 24.375C28.2538 24.375 29.375 23.2538 29.375 21.875C29.375 20.4962 28.2538 19.375 26.875 19.375C25.4962 19.375 24.375 20.4962 24.375 21.875C24.375 22.6912 24.7738 23.4106 25.3806 23.8675L22.4256 27.8075C22.0738 27.6175 21.6775 27.5 21.25 27.5C20.8038 27.5 20.3906 27.6269 20.0281 27.8325L16.2487 23.5131C16.6337 23.0731 16.875 22.5044 16.875 21.875C16.875 20.4962 15.7538 19.375 14.375 19.375C12.9962 19.375 11.875 20.4962 11.875 21.875C11.875 22.5163 12.1244 23.0956 12.5231 23.5387L8.93375 29.5206C8.67875 29.4331 8.40938 29.375 8.125 29.375C6.74625 29.375 5.625 30.4962 5.625 31.875C5.625 33.2538 6.74625 34.375 8.125 34.375ZM26.875 20.625C27.5644 20.625 28.125 21.1856 28.125 21.875C28.125 22.5644 27.5644 23.125 26.875 23.125C26.1856 23.125 25.625 22.5644 25.625 21.875C25.625 21.1856 26.1856 20.625 26.875 20.625ZM22.5 30C22.5 30.6894 21.9394 31.25 21.25 31.25C20.5606 31.25 20 30.6894 20 30C20 29.3106 20.5606 28.75 21.25 28.75C21.9394 28.75 22.5 29.3106 22.5 30ZM14.375 20.625C15.0644 20.625 15.625 21.1856 15.625 21.875C15.625 22.5644 15.0644 23.125 14.375 23.125C13.6856 23.125 13.125 22.5644 13.125 21.875C13.125 21.1856 13.6856 20.625 14.375 20.625ZM8.125 30.625C8.81438 30.625 9.375 31.1856 9.375 31.875C9.375 32.5644 8.81438 33.125 8.125 33.125C7.43562 33.125 6.875 32.5644 6.875 31.875C6.875 31.1856 7.43562 30.625 8.125 30.625Z" fill="black"/>
<path d="M30.8838 0.625H11.875V14.375H0.625V39.375H34.375H39.375V9.11625L30.8838 0.625ZM31.25 14.375V10H35.625V23.125H34.375V14.375H31.25ZM25 14.375H23.75V8.75H25V14.375ZM22.5 7.5V14.375H21.25V8.75H17.5V14.375H15.625V4.375H30V6.25H27.5V14.375H26.25V7.5H22.5ZM20 14.375H18.75V10H20V14.375ZM28.75 7.5H30V10V14.375H28.75V7.5ZM31.25 8.75V6.25V2.75875L37.2412 8.75H31.25ZM13.125 1.875H30V3.125H14.375V14.375H13.125V1.875ZM33.125 38.125H1.875V15.625H33.125V38.125ZM38.125 38.125H34.375V24.375H36.875V10H38.125V38.125Z" fill="black"/>
<path d="M3.125 11.875H1.875V13.125H3.125V11.875Z" fill="black"/>
<path d="M3.125 9.375H1.875V10.625H3.125V9.375Z" fill="black"/>
<path d="M3.125 6.875H1.875V8.125H3.125V6.875Z" fill="black"/>
<path d="M3.125 4.375H1.875V5.625H3.125V4.375Z" fill="black"/>
<path d="M5.625 4.375H4.375V5.625H5.625V4.375Z" fill="black"/>
<path d="M8.125 4.375H6.875V5.625H8.125V4.375Z" fill="black"/>
<path d="M10.625 4.375H9.375V5.625H10.625V4.375Z" fill="black"/>
<path d="M29.375 33.125H28.125V34.375H29.375V33.125Z" fill="black"/>
<path d="M26.875 33.125H25.625V34.375H26.875V33.125Z" fill="black"/>
<path d="M29.375 30.625H28.125V31.875H29.375V30.625Z" fill="black"/>
</g>
<defs>
<clipPath id="clip0_153_1223">
<rect width="40" height="40" fill="white"/>
</clipPath>
</defs>
</svg>
