<svg width="53" height="48" viewBox="0 0 53 48" fill="none" xmlns="http://www.w3.org/2000/svg">
<rect x="20" width="33" height="33" fill="#5699E8" fill-opacity="0.36"/>
<path d="M25.8333 9.66699V11.3337H35.1667L19.9167 23.667L10.8333 17.8337L2 24.0003L3 25.3337L10.8333 19.8337L20.0833 25.667L36.6667 12.2503V22.167H38.3333V9.66699H25.8333Z" fill="black"/>
<path d="M3.33341 29.667H1.66675V46.3337H3.33341V29.667Z" fill="black"/>
<path d="M9.16667 26.333H7.5V46.333H9.16667V26.333Z" fill="black"/>
<path d="M38.3334 29.667H36.6667V46.3337H38.3334V29.667Z" fill="black"/>
<path d="M32.4999 26.333H30.8333V46.333H32.4999V26.333Z" fill="black"/>
<path d="M26.6667 29.667H25V46.3337H26.6667V29.667Z" fill="black"/>
<path d="M20.8334 34.667H19.1667V46.3337H20.8334V34.667Z" fill="black"/>
<path d="M14.9999 29.667H13.3333V46.3337H14.9999V29.667Z" fill="black"/>
</svg>
