<svg width="504" height="878" viewBox="0 0 504 878" fill="none" xmlns="http://www.w3.org/2000/svg">
<g opacity="0.17">
<path opacity="0.0416667" d="M60.3727 224.152C67.2806 194.237 12.2684 401.879 123.559 442.757C234.85 483.634 133.07 226.717 224.716 355.641C316.361 484.565 406.542 565.993 406.723 482.26" stroke="#5699E8" stroke-width="2"/>
<path opacity="0.0833333" d="M57.199 219.763C64.8574 191.03 4.49586 389.903 117.159 438.805C229.821 487.707 131.288 228.079 222.11 361.603C312.932 495.126 403.234 582.039 405.136 500.085" stroke="#5699E8" stroke-width="2"/>
<path opacity="0.125" d="M54.0379 215.201C62.4374 187.685 -3.19995 377.546 110.698 434.414C224.595 491.281 129.427 229.257 219.316 367.219C309.205 505.18 399.518 597.471 403.138 517.396" stroke="#5699E8" stroke-width="2"/>
<path opacity="0.166667" d="M50.8933 210.472C60.0238 184.206 -10.8095 364.825 104.184 429.588C219.178 494.351 127.492 230.251 216.337 372.482C305.183 514.713 395.398 612.27 400.731 534.171" stroke="#5699E8" stroke-width="2"/>
<path opacity="0.208333" d="M47.7679 205.577C57.6182 180.593 -18.3247 351.749 97.6251 424.329C213.575 496.909 125.482 231.055 213.176 377.382C300.87 523.708 390.877 626.412 397.917 550.386" stroke="#5699E8" stroke-width="2"/>
<path opacity="0.25" d="M44.6671 200.526C55.2252 176.855 -25.7348 338.34 91.0297 418.648C207.794 498.956 123.402 231.672 209.838 381.917C296.274 532.161 385.962 639.887 394.701 566.025" stroke="#5699E8" stroke-width="2"/>
<path opacity="0.291667" d="M41.5938 195.322C52.8469 172.993 -33.0315 324.61 84.4055 412.548C201.842 500.487 121.254 232.098 206.326 386.078C291.398 540.057 380.66 652.673 391.086 581.066" stroke="#5699E8" stroke-width="2"/>
<path opacity="0.333333" d="M38.5511 189.967C50.4854 169.008 -40.2068 310.571 77.7595 406.033C195.726 501.495 119.04 232.329 202.644 389.855C286.249 547.382 374.974 664.752 387.076 595.487" stroke="#5699E8" stroke-width="2"/>
<path opacity="0.375" d="M35.5443 184.474C48.1453 164.91 -47.2503 296.248 71.1018 399.117C189.454 501.986 116.763 232.37 198.799 393.252C280.834 554.133 368.915 676.114 382.677 609.275" stroke="#5699E8" stroke-width="2"/>
<path opacity="0.416667" d="M32.5755 178.843C45.8278 160.697 -54.1548 281.65 64.4387 391.801C183.032 501.952 114.425 232.215 194.792 396.255C275.158 560.296 362.488 686.738 377.893 622.407" stroke="#5699E8" stroke-width="2"/>
<path opacity="0.458333" d="M29.649 173.082C43.5366 156.376 -60.9114 266.797 57.7792 384.095C176.47 501.393 112.03 231.864 190.63 398.864C269.229 565.864 355.701 696.614 372.731 634.869" stroke="#5699E8" stroke-width="2"/>
<path opacity="0.5" d="M26.7677 167.194C41.2735 151.95 -67.5125 251.703 51.1304 376.006C169.773 500.309 109.579 231.315 186.316 401.071C263.053 570.827 348.562 705.726 367.196 646.642" stroke="#5699E8" stroke-width="2"/>
<path opacity="0.541667" d="M23.9361 161.193C39.0425 147.428 -73.949 236.392 44.5018 367.548C162.953 498.704 107.078 230.574 181.859 402.879C256.639 575.184 341.08 714.067 361.296 657.716" stroke="#5699E8" stroke-width="2"/>
<path opacity="0.583333" d="M21.1564 155.078C36.845 142.809 -80.2143 220.876 37.9 358.726C156.014 496.575 104.527 229.635 177.26 404.279C249.994 578.924 333.264 721.621 355.036 668.072" stroke="#5699E8" stroke-width="2"/>
<path opacity="0.625" d="M18.4325 148.856C34.6842 138.099 -86.3003 205.174 31.3336 349.549C148.968 493.924 101.93 228.499 172.528 405.27C243.125 582.041 325.124 728.379 348.426 677.698" stroke="#5699E8" stroke-width="2"/>
<path opacity="0.666667" d="M15.7676 142.538C32.5626 133.305 -92.1997 189.306 24.8105 340.031C141.821 490.755 99.2909 227.169 167.666 405.851C236.042 584.532 316.669 734.334 341.473 686.581" stroke="#5699E8" stroke-width="2"/>
<path opacity="0.708333" d="M13.1652 136.128C30.483 128.431 -97.9051 173.29 18.3388 330.18C134.583 487.07 96.6122 225.644 162.682 406.019C228.752 586.394 307.91 739.476 334.185 694.71" stroke="#5699E8" stroke-width="2"/>
<path opacity="0.75" d="M10.6279 129.634C28.4474 123.482 -103.41 157.144 11.926 320.009C127.262 482.874 93.8968 223.927 157.581 405.775C221.265 587.624 298.856 743.799 326.572 702.075" stroke="#5699E8" stroke-width="2"/>
<path opacity="0.791667" d="M8.15933 123.062C26.4589 118.462 -108.707 140.886 5.58033 309.528C119.868 478.169 91.1489 222.016 152.37 405.116C213.591 588.217 289.521 747.296 318.642 708.664" stroke="#5699E8" stroke-width="2"/>
<path opacity="0.833333" d="M5.76139 116.419C24.5186 113.377 -113.792 124.536 -0.691607 298.748C112.408 472.961 88.3704 219.913 147.053 404.043C205.736 588.172 279.913 749.961 310.405 714.468" stroke="#5699E8" stroke-width="2"/>
<path opacity="0.875" d="M3.43834 109.713C22.6304 108.233 -118.655 108.113 -6.88078 287.684C104.894 467.255 85.5662 217.622 141.64 402.556C197.713 587.489 270.046 751.791 301.871 719.481" stroke="#5699E8" stroke-width="2"/>
<path opacity="0.916667" d="M1.1915 102.95C20.7951 103.034 -123.294 91.6356 -12.9812 276.346C97.3318 461.057 82.7381 215.142 136.134 400.655C189.53 586.169 259.931 752.783 293.05 723.695" stroke="#5699E8" stroke-width="2"/>
<path opacity="0.958333" d="M-0.975477 96.1388C19.0157 97.7861 -127.701 75.123 -18.9844 264.748C89.7325 454.374 79.8905 212.477 130.543 398.344C181.196 584.21 249.58 752.934 283.953 727.104" stroke="#5699E8" stroke-width="2"/>
<path d="M-3.06025 89.2861C17.2942 92.4949 -131.872 58.5947 -24.8835 252.904C82.1049 447.213 77.0266 209.629 124.875 395.622C172.723 581.616 239.006 752.243 274.591 729.702" stroke="#5699E8" stroke-width="2"/>
</g>
</svg>
