<svg width="170" height="58" viewBox="0 0 170 58" fill="none" xmlns="http://www.w3.org/2000/svg">
<path fill-rule="evenodd" clip-rule="evenodd" d="M106.635 0.864202C107.815 1.25118 109.328 2.08193 110.072 2.75217L111.401 3.94908L108.436 7.01279L105.471 10.0765L104.45 9.3022C102.037 7.47103 98.9751 8.16526 97.8059 10.8085C96.603 13.5283 97.0938 16.641 99.0119 18.4577C100.4 19.7721 103.04 19.7061 105.005 18.3085L106.454 17.2774L109.182 20.0599L111.908 22.8422L110.799 24.0175C108.379 26.58 105.457 27.6996 101.299 27.6577C98.2303 27.6266 95.6513 26.9843 93.5716 25.7334C86.756 21.6336 85.5493 9.95869 91.3277 4.0281C94.9863 0.272979 101.025 -0.975084 106.635 0.864202ZM19.5395 1.25083C24.4886 3.59421 27.3618 8.29507 27.3618 14.0482C27.3618 17.1285 26.6741 19.5241 25.1241 21.8421C22.9111 25.152 20.0677 26.9387 15.9359 27.6164C9.8808 28.6091 3.65935 25.4977 1.34324 20.3178C-1.5977 13.7413 0.432465 5.93758 6.04661 2.23996C8.52976 0.604572 10.5056 0.123761 14.3092 0.229589C16.9914 0.304021 17.9252 0.486397 19.5395 1.25083ZM48.678 1.44237C52.47 2.99522 54.4427 5.5499 54.7778 9.3403C55.0407 12.3172 54.3668 14.3809 52.4813 16.3708L50.912 18.027L53.5416 22.5635L56.1715 27.1003L50.7941 27.198C44.6187 27.3098 45.402 27.7162 42.957 23.1318C41.5616 20.515 41.3039 20.2215 40.4017 20.2215H39.3985V23.7491V27.2767H34.5868H29.7752V13.8447V0.412671L38.2815 0.54037C46.0674 0.657486 46.9479 0.733681 48.678 1.44237ZM83.2607 13.6955C85.7826 20.8741 87.8489 26.8707 87.8523 27.0209C87.8558 27.1716 85.4365 27.2509 82.476 27.1973L77.0935 27.1003L76.7082 25.6893L76.323 24.2782H72.2406H68.1583L67.773 25.6893L67.3877 27.1003L62.3342 27.198L57.2809 27.2954L58.258 24.5523C58.7955 23.0432 60.9044 17.0033 62.9442 11.1302L66.6529 0.451122L72.664 0.547425L78.6755 0.643375L83.2607 13.6955ZM123.682 9.72692L123.774 18.9868L129.187 19.0839L134.6 19.1812V23.2288V27.2767H124.461H114.323V13.8718V0.466996H118.956H123.591L123.682 9.72692ZM159.002 4.17097V7.87494H153.159H147.317V8.93321V9.99149H151.613H155.909V13.6955V17.3994H151.613H147.317V18.6341V19.8687H153.159H159.002V23.5727V27.2767H148.348H137.693V13.8718V0.466996H148.348H159.002V4.17097ZM39.3985 10.1679V12.4608H41.608C43.9991 12.4608 44.7263 12.0488 45.1109 10.4765C45.2663 9.84086 45.1078 9.36217 44.5359 8.73743C43.8602 7.99876 43.4341 7.87494 41.5726 7.87494H39.3985V10.1679ZM11.822 8.76072C9.02158 10.3771 8.79646 16.6551 11.4611 18.8066C12.4488 19.6042 14.1717 19.7259 15.5235 19.0937C18.1833 17.8499 18.5582 11.4131 16.1019 9.1678C15.1372 8.28625 12.9963 8.08271 11.822 8.76072ZM71.3061 13.4358L70.4394 16.5175L72.1413 16.6255C73.0775 16.6847 73.8955 16.6802 73.9591 16.6145C74.077 16.4939 72.4963 10.6857 72.2874 10.4712C72.2245 10.4067 71.7828 11.7408 71.3061 13.4358ZM69.3066 31.1193C70.3503 31.5229 71.7423 32.3155 72.3997 32.8806L73.5954 33.9082L71.2109 36.5013C69.8994 37.9272 68.6292 39.3209 68.3879 39.5979C68.0116 40.0303 67.7091 39.9679 66.258 39.1569C62.1888 36.8837 58.3013 39.0444 58.3013 43.5791C58.3013 48.0267 61.2282 50.4695 65.261 49.388C65.9717 49.1971 66.2061 48.9174 66.2061 48.2592C66.2061 47.457 66.0769 47.384 64.6596 47.384H63.113V44.3855V41.3871H68.9557H74.7984V47.3818V53.3763L73.3377 54.4765C67.7888 58.6553 58.7979 58.7865 53.8365 54.7612C46.1722 48.5431 47.3641 35.8812 56.0254 31.5045C59.5895 29.7037 65.2215 29.5403 69.3066 31.1193ZM16.6398 30.9845C19.5378 31.6855 21.3084 32.6633 23.0922 34.5471C25.3296 36.9098 26.4246 39.4881 26.6136 42.839C26.8717 47.4199 25.7262 50.4812 22.6471 53.4373C19.3443 56.6083 16.7436 57.2612 7.41862 57.2612H0.561692V43.8564V30.4515L7.52138 30.4568C12.4512 30.4603 15.1107 30.6141 16.6398 30.9845ZM45.5849 34.5083V38.565H44.0383H42.4917V43.8564V49.1477H44.0383H45.5849V53.2045V57.2612H37.68H29.7752V53.2045V49.1477H31.3218H32.8684V43.8564V38.565H31.3218H29.7752V34.5083V30.4515H37.68H45.5849V34.5083ZM93.3575 34.5083V38.565H91.8109H90.2643V43.8564V49.1477H91.8109H93.3575V53.2045V57.2612H85.6245H77.8915V53.2045V49.1477H79.4381H80.9847V43.8564V38.565H79.4381H77.8915V34.5083V30.4515H85.6245H93.3575V34.5083ZM118.447 34.6846V38.9177H115.354H112.26V48.0895V57.2612H107.449H102.637V48.0895V38.9177H99.5439H96.4507V34.6846V30.4515H107.449H118.447V34.6846ZM141.986 40.0642C143.836 45.3514 145.945 51.3835 146.672 53.469L147.993 57.2612H142.54H137.087L136.698 55.6738L136.309 54.0864H132.23H128.151L127.762 55.6738L127.373 57.2612H122.394C119.656 57.2612 117.416 57.1963 117.416 57.1169C117.416 56.9892 125.645 33.2538 126.386 31.2452C126.674 30.4642 126.773 30.4515 132.649 30.4515H138.621L141.986 40.0642ZM159.002 39.7996V49.1477H164.501H170V53.2045V57.2612H159.861H149.722V43.8564V30.4515H154.362H159.002V39.7996ZM10.185 43.807V49.1477L11.4738 49.128C14.9066 49.0747 16.7185 47.263 16.7099 43.8923C16.7013 40.5027 15.4022 39.019 12.1409 38.6736L10.185 38.4662V43.807ZM132.131 40.8604C131.909 41.2375 130.476 46.0766 130.476 46.452C130.476 46.5765 131.249 46.6784 132.194 46.6784C133.341 46.6784 133.912 46.5317 133.911 46.2375C133.907 45.3013 132.327 40.5284 132.131 40.8604Z" fill="white"/>
<path d="M169.656 46.3262V23.5733V0.820312H165.532H161.408V23.5733V46.3262H165.532H169.656Z" fill="#5699E8"/>
</svg>
