<svg width="52" height="48" viewBox="0 0 52 48" fill="none" xmlns="http://www.w3.org/2000/svg">
<rect x="19" width="33" height="33" fill="#5699E8" fill-opacity="0.36"/>
<g clip-path="url(#clip0_151_757)">
<path d="M1.875 33C1.53 33 1.25 32.72 1.25 32.375V12.375C1.25 11.3412 2.09125 10.5 3.125 10.5H36.875C37.9087 10.5 38.75 11.3412 38.75 12.375V14.25C38.75 14.595 38.47 14.875 38.125 14.875C37.78 14.875 37.5 14.595 37.5 14.25V12.375C37.5 12.0312 37.2188 11.75 36.875 11.75H3.125C2.78125 11.75 2.5 12.0312 2.5 12.375V32.375C2.5 32.72 2.22 33 1.875 33Z" fill="black"/>
<path d="M20 46.75H13.125C12.78 46.75 12.5 46.47 12.5 46.125C12.5 45.78 12.78 45.5 13.125 45.5H14.375C15.4088 45.5 16.25 44.6588 16.25 43.625V40.5C16.25 40.155 16.53 39.875 16.875 39.875C17.22 39.875 17.5 40.155 17.5 40.5V43.625C17.5 44.3288 17.2662 44.9775 16.8737 45.5H20C20.345 45.5 20.625 45.78 20.625 46.125C20.625 46.47 20.345 46.75 20 46.75Z" fill="black"/>
<path d="M19.375 40.5H3.125C2.09125 40.5 1.25 39.6588 1.25 38.625V34.875C1.25 34.53 1.53 34.25 1.875 34.25H19.375C19.72 34.25 20 34.53 20 34.875C20 35.22 19.72 35.5 19.375 35.5H2.5V38.625C2.5 38.9688 2.78125 39.25 3.125 39.25H19.375C19.72 39.25 20 39.53 20 39.875C20 40.22 19.72 40.5 19.375 40.5Z" fill="black"/>
<path d="M26.875 19.25H33.125C33.47 19.25 33.75 18.97 33.75 18.625C33.75 18.28 33.47 18 33.125 18H26.875C26.53 18 26.25 18.28 26.25 18.625C26.25 18.97 26.53 19.25 26.875 19.25Z" fill="black"/>
<path d="M29.375 44.25H30.625C30.97 44.25 31.25 43.97 31.25 43.625C31.25 43.28 30.97 43 30.625 43H29.375C29.03 43 28.75 43.28 28.75 43.625C28.75 43.97 29.03 44.25 29.375 44.25Z" fill="black"/>
<path d="M35.625 46.75H24.375C22.6513 46.75 21.25 45.3487 21.25 43.625V18.625C21.25 16.9013 22.6513 15.5 24.375 15.5H35.625C37.3487 15.5 38.75 16.9013 38.75 18.625V43.625C38.75 45.3487 37.3487 46.75 35.625 46.75ZM24.375 16.75C23.3412 16.75 22.5 17.5912 22.5 18.625V43.625C22.5 44.6588 23.3412 45.5 24.375 45.5H35.625C36.6587 45.5 37.5 44.6588 37.5 43.625V18.625C37.5 17.5912 36.6587 16.75 35.625 16.75H24.375Z" fill="black"/>
</g>
<defs>
<clipPath id="clip0_151_757">
<rect width="40" height="40" fill="white" transform="translate(0 8)"/>
</clipPath>
</defs>
</svg>
