<svg width="40" height="40" viewBox="0 0 40 40" fill="none" xmlns="http://www.w3.org/2000/svg">
<g clip-path="url(#clip0_153_1177)">
<path d="M34.375 16.8694V0.625H0.625V27.5H4.375V35.625C4.375 37.6931 6.05688 39.375 8.125 39.375C10.1931 39.375 11.875 37.6931 11.875 35.625V33.75V32.5V27.5H24.2388L12.9156 39.375H39.375V11.6262L34.375 16.8694ZM6.1275 13.75L8.125 10.5544L10.1225 13.75H6.1275ZM8.125 38.125C6.96375 38.125 5.99312 37.3256 5.71375 36.25H10.5363C10.2569 37.3256 9.28625 38.125 8.125 38.125ZM10.625 35H5.625V33.75H10.625V35ZM8.75 32.5V31.25H7.5V32.5H5.625V15H7.5V30H8.75V15H10.625V32.5H8.75ZM11.875 26.25V14.1956L8.125 8.19562L4.375 14.1956V26.25H1.875V6.875H30.625V5.625H1.875V1.875H33.125V5.625H31.875V6.875H33.125V18.125H33.1781L25.4306 26.25H11.875ZM38.125 38.125H15.8344L38.125 14.7487V38.125Z" fill="black"/>
<path d="M35.625 35.6254V21.5566L22.2969 35.6254H35.625ZM34.375 34.3754H25.2031L34.375 24.6941V34.3754Z" fill="black"/>
<path d="M4.375 3.125H3.125V4.375H4.375V3.125Z" fill="black"/>
<path d="M6.875 3.125H5.625V4.375H6.875V3.125Z" fill="black"/>
<path d="M9.375 3.125H8.125V4.375H9.375V3.125Z" fill="black"/>
<path d="M21.25 8.125C16.77 8.125 13.125 11.77 13.125 16.25C13.125 20.73 16.77 24.375 21.25 24.375C25.73 24.375 29.375 20.73 29.375 16.25C29.375 11.77 25.73 8.125 21.25 8.125ZM14.375 16.25C14.375 12.67 17.1262 9.72375 20.625 9.40687V17.1588L25.6337 21.5413C24.4425 22.5294 22.915 23.125 21.25 23.125C17.4594 23.125 14.375 20.0406 14.375 16.25ZM26.5206 20.6562L21.875 16.5912V9.40687C25.3737 9.72375 28.125 12.67 28.125 16.25C28.125 17.9256 27.5206 19.4619 26.5206 20.6562Z" fill="black"/>
</g>
<defs>
<clipPath id="clip0_153_1177">
<rect width="40" height="40" fill="white"/>
</clipPath>
</defs>
</svg>
