<svg width="53" height="48" viewBox="0 0 53 48" fill="none" xmlns="http://www.w3.org/2000/svg">
<rect x="20" width="33" height="33" fill="#5699E8" fill-opacity="0.36"/>
<g clip-path="url(#clip0_151_760)">
<path d="M32.9356 11.75L31.2769 12.8556C29.2137 10.2806 26.0487 8.625 22.5 8.625C18.6081 8.625 15.1731 10.6125 13.1525 13.625H0.625V47.375H28.125V29.6031C31.4819 27.6544 33.75 24.0287 33.75 19.875C33.75 17.6687 33.1025 15.615 32.0006 13.8756L33.3144 13H39.375V11.75H32.9356ZM21.875 9.90688V19.6912L16.5856 27.92C14.1131 26.0975 12.5 23.1744 12.5 19.875C12.5 14.5719 16.6525 10.2319 21.875 9.90688ZM22.5 31.125C23.14 31.125 23.7638 31.0588 24.375 30.9556V32.375H4.375V17.375H11.54C11.3563 18.1806 11.25 19.015 11.25 19.875C11.25 26.0781 16.2969 31.125 22.5 31.125ZM26.875 46.125H1.875V14.875H12.4369C12.2219 15.3056 12.0337 15.7506 11.875 16.2106V16.125H3.125V33.625H25.625V30.6744C26.0513 30.5506 26.4706 30.4106 26.875 30.2394V46.125ZM22.5 29.875C20.7331 29.875 19.0744 29.41 17.6325 28.6025L22.7531 20.6375L31.6175 23.9619C30.0513 27.4419 26.5575 29.875 22.5 29.875ZM32.5 19.875C32.5 20.89 32.3456 21.8694 32.0631 22.7937L23.125 19.4419V9.90688C25.9856 10.085 28.5263 11.4606 30.2369 13.5494L25.2781 16.855L25.9713 17.895L30.9606 14.5688C31.93 16.1088 32.5 17.925 32.5 19.875Z" fill="black"/>
<path d="M39.375 14.25H38.125V15.5H39.375V14.25Z" fill="black"/>
<path d="M36.875 14.25H33.75V15.5H36.875V14.25Z" fill="black"/>
<path d="M25.625 34.875H3.125V36.125H25.625V34.875Z" fill="black"/>
<path d="M25.625 37.375H5.625V38.625H25.625V37.375Z" fill="black"/>
<path d="M4.375 37.375H3.125V38.625H4.375V37.375Z" fill="black"/>
<path d="M25.625 39.875H3.125V41.125H25.625V39.875Z" fill="black"/>
<path d="M25.625 42.375H24.375V43.625H25.625V42.375Z" fill="black"/>
<path d="M23.125 42.375H3.125V43.625H23.125V42.375Z" fill="black"/>
<path d="M31.875 33.625H36.875V28.625H31.875V33.625ZM33.125 29.875H35.625V32.375H33.125V29.875Z" fill="black"/>
<path d="M34.375 41.125C32.6519 41.125 31.25 42.5269 31.25 44.25C31.25 45.9731 32.6519 47.375 34.375 47.375C36.0981 47.375 37.5 45.9731 37.5 44.25C37.5 42.5269 36.0981 41.125 34.375 41.125ZM34.375 46.125C33.3412 46.125 32.5 45.2838 32.5 44.25C32.5 43.2162 33.3412 42.375 34.375 42.375C35.4088 42.375 36.25 43.2162 36.25 44.25C36.25 45.2838 35.4088 46.125 34.375 46.125Z" fill="black"/>
<path d="M37.3537 39.8752L34.375 34.9102L31.3962 39.8752H37.3537ZM35.1462 38.6252H33.6037L34.375 37.3402L35.1462 38.6252Z" fill="black"/>
</g>
<defs>
<clipPath id="clip0_151_760">
<rect width="40" height="40" fill="white" transform="translate(0 8)"/>
</clipPath>
</defs>
</svg>
